<?xml version="1.0" encoding="UTF-8"?>
<svg version="1.1" viewBox="0 0 1600 1600" width="512" height="512" xmlns="http://www.w3.org/2000/svg">
<path transform="translate(0)" d="m0 0h1600v1600h-1600z" fill="#BFC9C6"/>
<path transform="translate(786,361)" d="m0 0h35l23 2 22 4 31 8 18 6 27 12 15 8 21 13 17 12 11 9 14 12 17 17 9 11 10 13 17 26 11 19 9 20 10 28 8 30 4 25 2 27v25l-3 30-5 27-6 21-7 21-8 16-7 16-5 8-8 15-8 11-6 10-6 7-6 9-5 5-11 12-15 15-5 6-11 9-8 7-17 12-21 12-23 11-23 9-11 4-7 10-8 13-10 17h-2l-8 20-8 10-6 16-7 8-5 13-11 18-7 6-8 2-9-1-6-3-8-8-15-25-25-45-16-30-10-19-1-4-10-3-20-7-30-15-20-12-17-12-14-11-14-12-22-22-9-11-10-13-7-10-13-20-14-27-12-31-8-27-4-19-3-22-1-15v-25l3-36 5-27 6-21 7-20 9-21 10-19 13-21 10-13 14-17 9-10 6-7 8-7 12-11 13-10 20-14 23-13 22-11 21-8 26-8 36-7z" fill="#96ACFA"/>
<path transform="translate(789,262)" d="m0 0 10 2 9 1 2 1h6l4 2h6l5 2 10-1 6 2h6l5-1 5 2h10l6-3 4 3 5 2 9 4 9 3 2-1v2l17 1 11 3 6 2 8 1 1 2h3l4 2 1 6 12 4 4 6 7 3 7 1 2 4 6 1 4-1 4 1v2h7l9 4 8 3 1 3 3 1v2l4 1 3 6v1l9 2 12 3 11 9v2l6 2 8 3 2 2 2 4h2v2l5 2 7 6 2 5 1 10 3 7 4 6 1 6h2l8 14 7 3v2l4 2 2 4 5 1 2 4 4 1v2h2l4 8v3h2l4 4 4 14 4 4 2 3v11h3l-2 13 3 10 3-3 4 2 1 5-5 1 1 2 2 7 5 4 3 11 3 1 2 6 5 9 2 9 2 3 2 11h3v4h-2l-1-2 1 18-4 9-3 12-2 7-3 4-1 5 3 1-1 6-5 4h-2l2 5 4 1 1 5-3 3h-2l-1 8 3 7v6h-2l-3 12 2 7-2 6-3 3h-2l-1 5-3 5h-2l1 4-3 8-1 2-5 1h-2l-3 1 1 6-2 4h-4l-5 10-5 2 1 2 3-1v3l-4 1v4l-2 1v4h-2l-1 6-1 8-1 1v11h-2l2 6 3 1v3l-5 4-2 3-5 2-2 10-4 5-2 7-6 10-1 5v6l-4 3h-2v3h-2l-2 4-2 6h-3l-8 9h3l-2 5-4 4-4 1-2 4 3 1-7 8-1 3-8 2-4 6-8 8-4 9-11 6 1 5-8 5-7 2-6 4h-2l-2 4-4 4h-3l-2 4-6 3-9 4h-2v2h-6l-4 1h-3l-2 5h2v2l3 1-5 5-1 2h3l2 2 4 1v4l-3 3-3 7h-2v2l-4 2 3 2v8h-2l-1 2-2-4-5 2-4 2h-3v-5l6-3-3-3h-2l-2 7-5 2-5-5-6-1-1 2-11 1-1 4 5 1v4h3l4 9 2 7-4 2-1-2-6 14v5l-4 5-2 5-2 10-4 11-4 4-2 5-2 1-3 8-5 2v2h-3v2l-4 3-4 7-6 4-2 5h-2l-1 6-3 1v3h-2l-2 4-1 3-1 5-2 1v2l-7 2-11-1-5 4-2 3-4-1-2 6h-2l1 4-4 4 2 1 7-1-3 9 21 1 6 1h9l1 2 4 2-6 1 16 2-2-2h10l1 2 5 1 8-1v1h10 3 6v1l8 2h11l21 2 11 5 8 4 5 6-2 9-8 7-6 3-7 2-16 1-11 1-10 3-15 1-4 1h-9l-6 1-27 1-15 2h-22l-27 2h-13l-42-2-11-1-9-1h-11-1l-1-2-1 2-7-1h-12l-17-3-5-1-2 1-7-2-9-1-2-2 63 3 37 2h70l48-2 48-4 30-4 19-4 12-5 3-5-1-4-11-5-22-5-24-3-31-2-27-1h-124l-66 3h-10l-3-2 7-2v2l21-2h18l2-1h4l-1-2 9-1h8l10-3-1-2h3l-1-4-5-2-1-2 2-9-2-11v-3l2-3v-5l4-1 2-5 4 1-6-8-2-5h-2l-4-8-4-7-3-7-4-9-4-4-2-8h-2l-5-7-2-7-5-9-4-5-2-4-8-7-3-4-7-4-8-6-3-10-3-1-2-8-6-7-3-5-12-7-2-2-10-4-21-14-10-6-14-14-6-4-5-4-2-5-5-3-5-9v-2l-3-1v-4h-2l-2-5-4-7-3-6-1-7-2-6 2-2 5 2v2l4 1 3 2h5l-1-5-3-4-1-6-4-2-8-8-2-3-4-1-6-7v-2h-2l-7-8-2-4-3-1-8-16-3-11-5-9-8-14-6-16-4-13-4-10-4-17-4-18-4-12-3-27-1-22 1-40 6-33 5-24 4-16 1-6-2-1 1-7 2-4h-3l1-7-5 1v2l-8 1-2-4-4-2-2-2v-5l-2 2-4-2v-7h3l7 2 3 4-1-6v-1l4-16 4-10 3-7 2-6v-8l1-9 4-19 4-10 5-12 4-5 5-5 6-7h2v-2l18-12h3v-2l5-3 6-7h3l2-4 6-5 5-5 6-7 3-3 7-8 6-5 5-12 5-4 4-4 3-2 1-3 8-4 2-4 4 1v-2l5-3 4-1 1-3h2v2l10-8 2-3 9-1 1-3 8-2v2l9-3 18-2 9-6 18-2 4-2 12-1 7-2h4v-2l9-1 13-6 8-1zm-3 99-26 3-36 7-26 8-16 6-25 12-20 11-15 10-11 8-14 11-12 11-10 9-7 8-11 13-11 14-11 16-9 15-10 19-11 27-8 25-5 23-3 20-2 28v25l2 23 4 25 7 26 7 20 10 24 13 25 12 18 13 18 12 14 7 8 20 20 11 9 18 14 17 11 21 12 24 12 20 7 10 3 2 6 14 27 12 22 16 29 13 23 11 17 8 8 10 3 9-1 7-4 7-9 8-14 5-13 7-8 6-16 7-8 7-17 1-3h2l10-17 8-13 7-10 11-4 25-10 27-13 21-13 16-12 12-11 6-5 7-8 17-17 5-7 5-4 6-10 7-8 6-11 7-9 10-19 7-14 5-12 6-12 9-29 5-23 3-20 2-22v-25l-2-27-4-25-8-30-10-28-11-24-12-20-10-15-10-14-11-13-9-10-13-13-11-9-12-10-24-16-22-13-21-10-23-9-33-9-20-4-16-2-14-1z" fill="#CBD7D2"/>
<path transform="translate(683,535)" d="m0 0h35l21 3 31 6 14 2 14 1h22l17-2 39-8 15-2h39l15 3 12 4 16 8 15 10 10 9 8 9 9 14 6 14 4 14 1 7v28l-3 17-4 11-9 17-4 8-6 8-7 10-10 8-13 8-21 9-19 4h-21l-18-3-18-5-16-8-20-13-14-8-11-3h-14l-17 4-16 8-18 12-23 11-14 4-6 1h-25l-20-4-16-6-14-8-12-9-11-11-10-14-6-10-8-18-4-18v-19l2-16 6-20 8-16 7-9 9-10 12-10 13-8 13-6 16-5z" fill="#41206A"/>
<path transform="translate(786,361)" d="m0 0h35l23 2 22 4 31 8 18 6 27 12 15 8 21 13 17 12 11 9 14 12 17 17 9 11 10 13 17 26 11 19 9 20 10 28 8 30 4 25 2 27v25l-3 30-5 27-6 21-7 21-8 16-7 16-5 8-8 15-8 11-6 10-6 7-6 9-5 5-11 12-15 15-5 6-11 9-8 7-17 12-21 12-23 11-23 9-11 4-7 10-8 13-10 17h-2l-8 20-8 10-6 16-7 8-5 13-11 18-7 6-8 2-9-1-6-3-8-8-15-25-25-45-16-30-10-19-1-4-10-3-20-7-30-15-20-12-17-12-14-11-14-12-22-22-9-11-10-13-7-10-13-20-14-27-12-31-8-27-4-19-3-22-1-15v-25l3-36 5-27 6-21 7-20 9-21 10-19 13-21 10-13 14-17 9-10 6-7 8-7 12-11 13-10 20-14 23-13 22-11 21-8 26-8 36-7zm10 33-20 1-26 4-26 6-30 10-29 14-18 11-17 12-13 10-11 10-6 5-7 8-10 11-12 16-10 15-9 17-8 16-8 21-8 27-4 22-2 15-1 15v34l3 29 5 22 9 30 9 21 10 18 13 21 9 12 11 13 12 13 13 13 11 9 14 11 15 10 21 12 23 11 34 11 29 6 23 3h41l25-3 28-7 21-7 24-10 24-13 19-12 14-11 14-12 18-18 11-14 14-21 8-13 13-26 10-26 7-25 5-25 2-16v-49l-3-24-5-25-7-22-10-25-8-16-8-14-11-16-11-14-9-10-6-7h-2v-2l-8-7-15-13-18-13-23-14-16-8-23-10-26-8-25-5-23-3z" fill="#271750"/>
<path transform="translate(796,394)" d="m0 0 30 1 23 3 25 5 26 8 23 10 16 8 20 12 14 10 10 8 14 12 6 5v2l3 1 7 8 9 10 12 16 11 17 10 18 12 29 6 18 6 26 3 20 1 10v49l-4 27-6 26-4 13-3 1v-7l1-6 1-16 1-5v-10l-2-4-2-1v-2l-12-1-2-2-5 1-4 3-9 3-3 4-9 3-13 4-8-3-6 1-4 1 7-11 7-10 4-6 8-17 5-10 3-13 1-8v-28l-3-15-7-18-8-13-8-10-8-8-18-12-16-8-15-5-12-2h-39l-25 4-29 6-17 2h-22l-21-2-28-5-21-4-10-1h-35l-19 3-16 5-17 8-14 10-12 11-8 10-8 14-7 21-3 2v-10l3-10 5-12 9-13 1-10-6-2-4-5h-4l-1-5h-4l-1-4h-7l-10 3-3 1-1 3-6 1-1-5 2-7 9-16 7-11 9-13 11-13 12-13 5-6 8-7 15-12 17-12 21-13 22-11 21-8 24-7 29-6 15-2z" fill="#DFC8FB"/>
<path transform="translate(1048,712)" d="m0 0 4 1 1 1 10 1 2 1v2l4 2 1 3v10l-1 9-1 14-1 10 1 3-10 25-13 26-10 16-14 20-12 14-18 18-11 9-16 12-25 15-6 1 1-2 10-5 11-7 1-5-4-5v-2l-12-3-11-2h-15l-3-5-14 1-4-4-12-4-2-5-4-2 2-2-6-1 2 4-4-1-2-4v-2l-12-3v-3-3l-9-1 1-4-5-2-4 1v-3l-7-3-1-10 1-5-4-16-6-9-9-5-3-1h-11l-8 4-6 7-2 4v9l7 14-3-2h-8l-4-5-3-4-10-5-10-7-4-4h4l-9-6-3-3-7-4 2-2-7-5-5-2-1-4-3-3-1-7 1-2-2-1 2-4 5-7h2l2-4 3-1 2-4 6-4 3-3h3v-3l-12 6-8 3h-6v-2l12-5 19-9 16-11 16-8 17-4h14l13 4 14 8 18 12 16 8 18 5 18 3h21l19-4 21-9 16-10 5-5 2 1-1 2 4-2 7 1 6 2 12-4 5-2h4l2-4 6-3 5-2z" fill="#B3A7F8"/>
<path transform="translate(683,535)" d="m0 0h35l6 2v1l-39 1-15 1-7 3-12 4-7 4h-3v2l-8 6-4 4h-2l-1 3h-2l-3 10 3 3-2 1 5 5 6 3 3 3 1 8 7-1 11-6 8 1v2l5 2 8 4 10 2 3 1 15 2 7 3 7 2 9 4 10 7 11 7 5 2 1 2 8 4 2 9-2 4-3 3-9 5-14 7-14 5-12 2v2l-8 3-1 4 5 3 11 5h24l17 2 1-3 9-4h2v-2h2v-2l9-4 19-4 8 1 12 6 7 5 13 5 19 10 10 3 7 4 5 2 20 2 18 5 19 1 7 1 5 1 9-2 8-4 8-3h8l1 3h2l2 3 9-4h2l1 5-7 10-10 8-13 8-21 9-19 4h-21l-18-3-18-5-16-8-20-13-14-8-11-3h-14l-17 4-16 8-18 12-23 11-14 4-6 1h-25l-20-4-16-6-14-8-12-9-11-11-10-14-6-10-8-18-4-18v-19l2-16 6-20 8-16 7-9 9-10 12-10 13-8 13-6 16-5z" fill="#271750"/>
<path transform="translate(786,361)" d="m0 0h35l23 2 22 4 31 8 18 6 27 12 15 8 21 13 17 12 11 9 14 12 17 17 9 11 10 13 17 26 11 19 9 20 10 28 8 30 4 25 2 27v25l-3 30-5 27-6 21-7 21-8 16-7 16-5 8-8 15-8 11-4 7-4 1-6 2-4-2-1-4 6-14 2-5 4-8 2-10 7-15v-3l3-9 2-9h2l1-9h1l2-10 2-7 2-6 1-9 3-1v-15l3-1v-17l3-5 1-6v-9l-2-9-1 1-1 18h-1l-1-48-3-24-5-25-7-22-10-25-8-16-8-14-11-16-11-14-9-10-1-3-3-1-3-3v-2l-4-2-13-12-17-13-15-10-15-9-16-8-23-10-26-8-25-5-23-3-30-1-20 1-26 4-14 3-5-1-15 3-2 1-9 1-7 3-12 3-6 2h-4v2l-25 10h-2l-1 3h-2l-1 3-9 5-2 3-5 1-2 3-6 1-1 3-8 5-5 2-10 7-7 2-7 1v2l-5 3h-2l2-4 8-12 3-5 5-6h2l1-3h2l2-4h2l1-3 11-8 7-6 14-10 3-3 18-10 27-13 36-12 34-7 20-3z" fill="#41206A"/>
<path transform="translate(526,680)" d="m0 0 4 1v2l4-1h3l5 2 10 10 8 13 10 16 6 9 8 10 9 17 6 8 2 4 9 10 8 6 5 3v3l6 2 3 5 8 7 6 7 2 3 5 2 2 3v3l4 2 4 3 5 9 8 6 9 6 5 5 9 6 21 12 10 6 2 4 3 3 3 5 21 21 5 2 7 6 5 3 1 3 5 2 1 2 13 4 1 3 10 2 7 2 7 7 7 1v2l7 1 1 3-10 3h-41l-23-3-29-6-36-12-23-11-24-14-18-13-13-11-12-11-13-13-7-8-12-15-10-15-13-22-8-15-8-21-9-31-4-22-1-10v-21z" fill="#7DB5FE"/>
<path transform="translate(755,1211)" d="m0 0h124l44 2 22 2 21 3 17 4 12 6 1 4-3 5-10 5-16 4-27 4-30 3-27 2-48 2h-70l-52-3-50-4-25-4-15-4-7-4-3-4 2-4 5-4 9-4 15-3 32-4 13-1z" fill="#888AD5"/>
<path transform="translate(683,427)" d="m0 0h11l4 4-2 8v5l4 7 3 9v10l-1 11v6l-4 2v11l2 3 2 8h2l3 3 14 7-1 3-16 3-9 3-30 4h-2v2l-20 6-14 7-4 4-6 2-2 4-4 1-1 3h-2l-1 3h-2v3h-3l-1 4h-2v2l2 1-6 7-8 14-7 21-3 2v-10l3-10 5-12 9-13 1-10-6-2-4-5h-4l-1-5h-4l-1-4h-7l-10 3-3 1-1 3-6 1-1-5 2-7 9-16 7-11 9-13 11-13 12-13 5-6 8-7 15-12 17-12 21-13 4-1 1 2 4-2z" fill="#C5B7FB"/>
<path transform="translate(798,714)" d="m0 0h14l13 4 14 8 18 12 16 8 9 4-1 2-9-2-11-3-6-4-10-1-1 2 6 11 1 4-3 6-5 5h-2l-1 3-8 5 1 5-3 6-4 2 1 8-2 3 8 6 3 5v7l-3 9h-3l-3-12-6-9-9-5-3-1h-11l-8 4-6 7-2 4v9l7 14-3-2h-8l-4-5-3-4-10-5-10-7-4-4h4l-9-6-3-3-7-4 2-2-7-5-5-2-1-4-3-3-1-7 1-2-2-1 2-4 5-7h2l2-4 3-1 2-4 6-4 3-3h3v-3l-12 6-8 3h-6v-2l12-5 19-9 16-11 16-8z" fill="#C5B7FB"/>
<path transform="translate(1048,712)" d="m0 0 4 1 1 1 10 1 2 1v2l4 2 1 3v10l-1 9-1 14-1 10 1 3-10 25-13 26-4 7h-2l-1-5 6-10 1-7h-2l-1-5-2 1h-6l-2-3-8-3-5-8-2-1v-3l-7 1-1 3-7 1-2-1v-2l-4 1-5-2h-11l-11-5-3-6-4-2 1-4 2-6 3-5 6-5 7-5h2v-2h2l2-4 3-4h3v-2l2-1 1-3-10 5-8 5-2-1 5-5 8-6 4-2-1 3 4-2 7 1 6 2 12-4 5-2h4l2-4 6-3 5-2z" fill="#C5B7FB"/>
<path transform="translate(908,610)" d="m0 0h12l15 3 17 7 10 7 1 3-6 12-11 12-9 7-15 7-8 2h-23l-15-4-14-7-15-10 2-4 4-4 7-10 8-7 10-6 14-5z" fill="#DDEFF1"/>
<path transform="translate(680,611)" d="m0 0h25l16 4 14 8 12 9 10 9 4 4-2 4-15 10-14 6-13 4-5 1h-18l-14-4-10-5-11-9-8-10-6-11 1-4 5-5 14-7z" fill="#DDEFF1"/>
<path transform="translate(798,714)" d="m0 0h14l-1 2 5 3 1 4-1 1-14 1-24 6-9 3-8 6-3 4-7 4-5 7v11l4 2 9 2 5 3 10 8 1 5 5 1 5 2 4 1 6 2v4l-6 3-5 5-5 6 1 15 2 4 4 5 3 4-1 2-2-2h-8l-4-5-3-4-10-5-10-7-4-4h4l-9-6-3-3-7-4 2-2-7-5-5-2-1-4-3-3-1-7 1-2-2-1 2-4 5-7h2l2-4 3-1 2-4 6-4 3-3h3v-3l-12 6-8 3h-6v-2l12-5 19-9 16-11 16-8z" fill="#B3A7F8"/>
<path transform="translate(1100,779)" d="m0 0 2 4 1 5 2 14v11l-6 20-9 17-8 13-6 10-7 10h-2l-2 4-13 13h-2l-2 5h-2l-2 4-7 6h-2v2h-2v2l-15 9-7 3-11 4-4 2-8 2-6 2-2-2 5-6 8-6 11-10 5-4 7-8 17-17 6-8 5-5 6-9 6-7 6-11 7-9 10-19 7-14 5-12 6-10z" fill="#DDEEF1"/>
<path transform="translate(845,989)" d="m0 0h4l-2 6-13 25-10 18-15 29-3 6-4-2-8-14-6-10-12-22-8-14-9-20 3-1 41 2h13l21-2z" fill="#96AAF8"/>
<path transform="translate(903,976)" d="m0 0h5l-2 4-5 2v7l2 3 1 10-4 11-6 11-4 6h-2l-6 15-4 5-9 16-7 9-3 5-3 7-7 13-6 4-13 5-9 4-12 4-1 1h-12l-7-3-6-8-2-1v-3h-2l-4-8 1-2 4 4 6 8 7 6 8 2 9-1 7-4 7-10 7-12 5-13 7-8 6-16 7-8 7-17 2-3h2l2-5 7-12 8-13 8-11z" fill="#DDEEF1"/>
<path transform="translate(914,1209)" d="m0 0 8 1h5 3 6v1l8 2h11l21 2 11 5 8 4 5 6-2 9-8 7-6 3-7 2-16 1-11 1-10 3-15 1-4 1h-9l-6 1-27 1-15 2h-22l-27 2h-13l-42-2-11-1-9-1h-11-1l-1-2-1 2-7-1h-12l-17-3-5-1-2 1-7-2-9-1-2-2 63 3 37 2h70l48-2 48-4 30-4 19-4 12-5 3-5-1-4-11-5-22-5-24-3-31-2 4-3z" fill="#CAD4D3"/>
<path transform="translate(798,801)" d="m0 0h11l9 4 5 4 6 10 1 9-4 8-7 7-8 4h-9l-10-5-8-9-3-7v-9l6-9 8-6z" fill="#271750"/>
<path transform="translate(570,548)" d="m0 0h7l1 5h4l2 5 2 1 1-2 5 6 6 2-1 10-9 13-5 12-3 10v11l-3-1-1-3-3-4v-2h-3l-5-13-3-12h-1l-1-13 1-2-1-3-1 2-4-2v-2l-2-2v-7l7-6z" fill="#B3A8F9"/>
<path transform="translate(1243)" d="m0 0h357v8l-5-1h-55l-10 1h-19l-30-3-8-1h-51l-19 1h-29l-33-1h-81l-15-2z" fill="#CCD8D2"/>
<path transform="translate(809,1019)" d="m0 0 14 1 6 2-2 7-2 5-2 6-14 27-3 6-4-2-8-14-6-10 2-8-1-5 2-3 10-9z" fill="#7DB5FE"/>
<path transform="translate(847)" d="m0 0h310v2l-14 1-37 1h-14l-31-1h-67l-8-1-3 1h-58l-15-1-14 1-4-1-4 1h-30l-11-2z" fill="#CCD8D2"/>
<path transform="translate(945,435)" d="m0 0 6 1 18 12 13 10 15 13 6 5v2l3 1 7 8 9 10 12 16 11 17 2 5-5-3-6-7v-2h-2l-15-22-9-10-9-9-7-8-7-5v-2l-5-2-10-9-12-8-10-8-3-3z" fill="#D8E4F0"/>
<path transform="translate(1022,677)" d="m0 0 2 2v12l-1 9v6l-4 6-11 7-8 6-8 5-2-1 8-11 10-15 8-17 3-5 2-1z" fill="#D8E9F1"/>
<path transform="translate(965,404)" d="m0 0 11 6 9 6 2 1v2l5 2 4 2v2l4 1v2l4 1 4 4 4 2v2l4 2 3 2v2l4 2 4 5 5 4 4 4v2l4 2 6 9v2h2l7 9 7 10 7 11 9 14 6 11-1 2-4-4-10-17-10-15-10-14-11-13-9-10-12-12-11-9-12-10-24-16-5-3z" fill="#D5E5EA"/>
<path transform="translate(914,1209)" d="m0 0 8 1h5 3 6v1l8 2h11l21 2 11 5 8 4 5 6v2h-2l-2 5-5 4h-3v-2l6-4 1-6-12-6-22-5-24-3-31-2 4-3z" fill="#CCD4D7"/>
<path transform="translate(1e3 576)" d="m0 0 4 2 9 14 6 14 4 14 1 7v28l-1 8-3 1 1-7v-14l-1-2-1-14-2-8-3-10-6-18-2-4v-3h-2l-2-6h-2z" fill="#2B1854"/>
<path transform="translate(733,620)" d="m0 0 14 8 5 3 2 2 8 4 2 9-2 4-3 3-9 5-14 7-12 4-3-1 3-2 16-6 12-7 8-6-2-4-8-8-15-11-2-1z" fill="#291752"/>
<path transform="translate(663,535)" d="m0 0 4 2-7 3-17 6-17 9-10 8-10 9-3 3h-2v-2l2-1 1-3h3v-3l5-4 1-2 5-3 4-4 5-3 9-6 9-4z" fill="#D3D8F1"/>
<path transform="translate(596,485)" d="m0 0 1 2-6 9-3 4h-2l-2 4-9 12-3 5h-2l-2 4-3 3h-2l2-7 8-12 9-11 8-7z" fill="#D4E4F1"/>
<path transform="translate(821,718)" d="m0 0 6 1 18 11 15 10 16 7 6 3-1 2-9-2v-2l-5-1-14-7-32-20z" fill="#D4C0F6"/>
<path transform="translate(1114,690)" d="m0 0h1v20l-4 25-5 22-3-1v-7l2-3 1-9 2-3 1-13 2-6v-10l2-12z" fill="#2E1957"/>
<path transform="translate(630,1219)" d="m0 0 4 2-8 3-9 5-3 3 2 6 5 2 8 3-1 3h-8l-6-3-1-3h-2l-2-6 1-6 3-1v-2l6-3 8-1z" fill="#C9D5D3"/>
<path transform="translate(1043,472)" d="m0 0 5 1 7 9 7 10 7 11 9 14 6 11-1 2-4-4-10-17-10-15-10-14z" fill="#D0DDE9"/>
<path transform="translate(660,617)" d="m0 0 3 1 2 1 4 1v3h-2v2h-2l-1 3-5 3-8 1-2-1 2-5 4-4h2l-1-3z" fill="#CBD7D3"/>
<path transform="translate(683,535)" d="m0 0h35l6 2v1l-39 1h-15l-1-2z" fill="#2E1957"/>
<path transform="translate(940,614)" d="m0 0 5 1 17 9 3 3-1 7-6 10h-2l-2 4-4 5-4 3-2-1 9-9 8-13 1-4-5-5-17-9z" fill="#2D1956"/>
<path transform="translate(702,976)" d="m0 0 9 1 4 2 11 22 1 5-4-4-5-10-3-4v-2l-3-1-2-4-8-4z" fill="#D2E1E9"/>
<path transform="translate(761,544)" d="m0 0h9l14 2 14 1 13 2v1l-38-1-12-4z" fill="#2C1955"/>
<path transform="translate(793,1053)" d="m0 0 3 2v2h2v2l4 1 3 2v2l6-2-5 11-4-2-8-14z" fill="#98AEF4"/>
<path transform="translate(914,1209)" d="m0 0 8 1h5 3 6v1l9 3v1l-22-1-17-1 4-3z" fill="#C8CED7"/>
<path transform="translate(584,503)" d="m0 0v3l-6 9-3 5-2 3h-2l-1 5-5 5-5 1 1-7 3-3-1 4 6-5 1-2h2l2-5z" fill="#D9C4F9"/>
<path transform="translate(663,535)" d="m0 0 4 2-7 3-17 6-6 2 2-4h2v-2l11-4z" fill="#D3DFEE"/>
<path transform="translate(812,801)" d="m0 0 9 2 5 4 5 8 1 3v8l-2-4-6-10-5-5-7-4z" fill="#D7D9F3"/>
<path transform="translate(1043,472)" d="m0 0 5 1 7 9 7 10 3 5-1 3-3-3-12-17z" fill="#CDD9EA"/>
<path transform="translate(665,1251)" d="m0 0 20 1 15 1 2 2-1 2-11-1-5-1-2 1-7-2-9-1z" fill="#CCD8D2"/>
<path transform="translate(755,651)" d="m0 0m-2 1 2 1-5 5-14 7-12 4-3-1 3-2 16-6 12-7z" fill="#2D1956"/>
<path transform="translate(634,410)" d="m0 0 3 1-15 10-8 7-5 4-5 2 4-6 18-13z" fill="#2B1854"/>
<path transform="translate(855,634)" d="m0 0h2l-2 5-4 6-3 2v2l8 5-1 2-4-3-5-2-1-7 3-4h2l1-3 3-1z" fill="#2A1853"/>
<path transform="translate(965,404)" d="m0 0 11 6 9 6 2 1v2l5 2 2 4-5-2-11-8-13-8z" fill="#CCDAE4"/>
<path transform="translate(793,800)" d="m0 0 4 1-10 8-5 8v13l-2-2-1-3v-8l4-8z" fill="#D0CEED"/>
<path transform="translate(784,717)" d="m0 0h7l-2 2-13 6-5 2-3-1 4-4z" fill="#BEB2F7"/>
<path transform="translate(1114,690)" d="m0 0h1v20l-2 6-2-1v-10l2-12z" fill="#291752"/>
<path transform="translate(933,388)" d="m0 0 5 1 23 12 1 2-5-1-21-11-3-1z" fill="#CBD8E3"/>
<path transform="translate(991,726)" d="m0 0 2 1-1 2 2 1-16 10-2-1 5-5 8-6z" fill="#C4B6F3"/>
<path transform="translate(681,1211)" d="m0 0h2v2h32v1l-36 1-3-2z" fill="#C8C5E9"/>
<path transform="translate(778,817)" d="m0 0h1l2 11 3 3 5 7-1 2-4-3v-2l-4-1-2-5z" fill="#C0B5F9"/>
<path transform="translate(732,745)" d="m0 0 3 1 1 2-12 5h-6v-2l12-5z" fill="#B0A6F2"/>
<path transform="translate(747,738)" d="m0 0h2l-1 4-9 5h-5l1-3z" fill="#B8ADF5"/>
<path transform="translate(953,912)" d="m0 0 1 3-15 9-6 1 1-2 10-5z" fill="#B0ACF3"/>
<path transform="translate(866,744)" d="m0 0 10 3 6 3-1 2-9-2v-2l-5-1z" fill="#CDBBF8"/>
<path transform="translate(1113,712)" d="m0 0h1l-1 13-1 5-3-4 1-8 2-2z" fill="#311A5A"/>
<path transform="translate(665,1251)" d="m0 0 20 1v3l-2 1-7-2-9-1z" fill="#CBD7D1"/>
<path transform="translate(630,1219)" d="m0 0 4 2-8 3-7 3v-2l-2-1 2-2 8-1z" fill="#C6D1CF"/>
<path transform="translate(914,1209)" d="m0 0 3 1 5 1v2h-16l4-3z" fill="#C9CBE0"/>
<path transform="translate(613,560)" d="m0 0 2 1-2 1zm-1 2 1 3-10 10h-2v-2l2-1 1-3h3v-3z" fill="#DDD3F9"/>
<path transform="translate(598,482)" d="m0 0v3l-8 7-7 6 2-4 10-11z" fill="#B7C4EE"/>
<path transform="translate(1086,536)" d="m0 0h2v2l2 1 3 8-1 3v-2h-2l-4-9z" fill="#D2DFEA"/>
<path transform="translate(981,414)" d="m0 0 6 3v2l5 2 2 4-5-2-8-6z" fill="#CFDDE5"/>
<path transform="translate(634,410)" d="m0 0 3 1-15 10-4 1 5-5z" fill="#331B5C"/>
<path transform="translate(793,800)" d="m0 0 4 1-10 8h-3l5-6z" fill="#D6E1EB"/>
<path transform="translate(735,662)" d="m0 0 3 1-5 3-9 3-3-1 3-2z" fill="#301A59"/>
<path transform="translate(638,543)" d="m0 0 3 1-3 2-1 3-6 2-3-2z" fill="#D9D4F5"/>
<path transform="translate(1038,825)" d="m0 0 2 3-7 11-2-2 6-11z" fill="#BAAFF4"/>
<path transform="translate(1106,746)" d="m0 0h1v7l-1 4-3-1v-7z" fill="#2B1854"/>
<path transform="translate(852,642)" d="m0 0 2 3-2 6-5-2 2-4z" fill="#C9D5DA"/>
<path transform="translate(645,540)" d="m0 0 2 1-1 1 2 2-9 4h-2l2-4h2v-2z" fill="#CFD3ED"/>
<path transform="translate(967,903)" d="m0 0m-1 1 2 2-12 8v-3z" fill="#B3AAF0"/>
<path transform="translate(812,801)" d="m0 0 9 2 5 4-1 2-4-3h-3l-6-3z" fill="#D4C1F5"/>
<path transform="translate(622,1225)" d="m0 0 1 2-5 5-3 4-2-4 7-6z" fill="#3B1E64"/>
<path transform="translate(1043,818)" d="m0 0h2l-2 5-2 4h-2l-1-5z" fill="#C7B8F6"/>
<path transform="translate(650,1249)" d="m0 0h13v3h-8l-5-2z" fill="#C9D5CF"/>
<path transform="translate(719,993)" d="m0 0h3l5 9-1 4-4-7z" fill="#CEDCE3"/>
<path transform="translate(990,885)" d="m0 0h2l-1 3-11 9v-3l5-4z" fill="#B9AEF3"/>
<path transform="translate(997,1231)" d="m0 0 2 1-4 6-4 3h-3v-2l6-4z" fill="#DAE9ED"/>
<path transform="translate(923,1210)" d="m0 0 10 2v1h-11zm7 0h6l-3 2z" fill="#CCD8D2"/>
<path transform="translate(649,401)" d="m0 0 4 1-12 7-3-1z" fill="#2F1A58"/>
<path transform="translate(1058,787)" d="m0 0h1l-1 7-3 4-1-4z" fill="#D1BEF6"/>
<path transform="translate(884,750)" d="m0 0 7 1 2 3-10-1-1-2z" fill="#BAAFF5"/>
</svg>
