<?xml version="1.0" standalone="no"?>
<!DOCTYPE svg PUBLIC "-//W3C//DTD SVG 20010904//EN"
 "http://www.w3.org/TR/2001/REC-SVG-20010904/DTD/svg10.dtd">
<svg version="1.0" xmlns="http://www.w3.org/2000/svg"
 width="500.000000pt" height="500.000000pt" viewBox="0 0 500.000000 500.000000"
 preserveAspectRatio="xMidYMid meet">

<g transform="translate(0.000000,500.000000) scale(0.100000,-0.100000)"
fill="#000000" stroke="none">
<path d="M2393 3861 c-176 -29 -299 -74 -422 -155 -150 -100 -272 -237 -346
-389 -66 -138 -86 -219 -92 -378 -6 -157 4 -232 49 -364 90 -267 332 -516 590
-610 l60 -22 98 -178 c120 -218 135 -238 179 -238 40 0 52 13 110 127 45 86
102 188 139 247 18 29 36 41 85 59 137 49 233 113 350 235 143 148 241 334
278 527 17 87 14 279 -4 363 -82 375 -363 667 -729 755 -93 23 -267 33 -345
21z m324 -121 c270 -64 502 -261 604 -515 43 -110 61 -203 60 -330 0 -250 -88
-465 -260 -635 -106 -104 -215 -171 -360 -218 -98 -32 -115 -34 -236 -35 -110
0 -145 4 -228 27 -297 80 -535 306 -628 596 -94 294 -11 654 200 865 230 229
537 318 848 245z m-133 -1965 c-66 -124 -68 -126 -84 -105 -20 27 -120 214
-120 225 0 4 37 6 83 3 45 -3 105 -2 132 1 28 4 52 6 53 5 2 -2 -27 -59 -64
-129z"/>
<path d="M2073 3315 c-118 -32 -209 -110 -243 -208 -29 -82 -27 -186 5 -254
57 -125 171 -203 306 -211 68 -4 84 -1 135 22 33 15 79 40 104 56 25 16 69 34
97 40 59 13 81 6 186 -58 115 -68 241 -79 350 -29 69 32 110 76 155 165 32 66
36 82 36 155 0 104 -26 167 -95 232 -106 100 -229 125 -413 86 -124 -26 -212
-26 -351 -1 -126 23 -199 24 -272 5z m199 -246 c38 -20 108 -76 108 -88 0 -14
-72 -52 -127 -67 -48 -13 -66 -14 -101 -5 -47 13 -106 60 -128 102 -14 28 -14
30 18 49 18 11 44 23 58 26 14 3 30 7 35 9 21 7 101 -8 137 -26z m688 1 c22
-11 43 -27 46 -35 8 -20 -35 -73 -81 -100 -79 -47 -159 -42 -243 13 l-43 29
45 46 c74 77 182 95 276 47z"/>
<path d="M2465 2475 c-32 -31 -31 -56 1 -94 30 -36 61 -39 98 -10 41 32 34 89
-15 114 -39 21 -56 19 -84 -10z"/>
</g>
</svg>
